# xmcd
#
# Track frame offsets:
#	150
#	21685
#	45257
#	69670
#	91120
#	110227
#	126574
#	155036
#	179583
#	199318
#	226371
#	248606
#	252324
#	276837
#	295863
#
# Disc length: 4172 seconds
# Revision: 0
# Processed by: cddbd v1.5.2PL0 Copyright (c) Steve Scherf et al.
# Submitted via: dBpowerAMP V12.0
#
DISCID=e6104a0f
DTITLE=Shadows Fall - Fear Will Drag You Down
DYEAR=1900
DGENRE=2002
TTITLE0=Deadworld
TTITLE1=Stepping Outside the Circle
TTITLE2=Crushing Belial
TTITLE3=Of One Blood
TTITLE4=The First Noble Truth
TTITLE5=Fleshold
TTITLE6=Root Bound Apollo
TTITLE7=Revel in My Loss
TTITLE8=Montauk
TTITLE9=To Ashes
TTITLE10=Serenity
TTITLE11=Pain Glass Vision
TTITLE12=Crushing Belial (Live)
TTITLE13=The First Noble Truth (Live)
TTITLE14=Fleshold (Live)
EXTD=
EXTT0=
EXTT1=
EXTT2=
EXTT3=
EXTT4=
EXTT5=
EXTT6=
EXTT7=
EXTT8=
EXTT9=
EXTT10=
EXTT11=
EXTT12=
EXTT13=
EXTT14=
PLAYORDER=
